<svg width="18" height="19" viewBox="0 0 18 19" fill="none" xmlns="http://www.w3.org/2000/svg">
<path d="M15.375 7.72453H13.2075C11.43 7.72453 9.9825 6.27703 9.9825 4.49953V2.33203C9.9825 1.91953 9.645 1.58203 9.2325 1.58203H6.0525C3.7425 1.58203 1.875 3.08203 1.875 5.75953V12.4045C1.875 15.082 3.7425 16.582 6.0525 16.582H11.9475C14.2575 16.582 16.125 15.082 16.125 12.4045V8.47453C16.125 8.06203 15.7875 7.72453 15.375 7.72453Z" fill="currentColor"/>
<path d="M11.85 1.73989C11.5425 1.43239 11.01 1.64239 11.01 2.06989V4.68739C11.01 5.78239 11.94 6.68989 13.0725 6.68989C13.785 6.69739 14.775 6.69739 15.6225 6.69739C16.05 6.69739 16.275 6.19489 15.975 5.89489C14.895 4.80739 12.96 2.84989 11.85 1.73989Z" fill="currentColor"/>
</svg>
