<svg width="20" height="20" viewBox="0 0 20 20" fill="none" xmlns="http://www.w3.org/2000/svg">
<path d="M13.9582 2.964V1.664C13.9582 1.32233 13.6749 1.039 13.3332 1.039C12.9915 1.039 12.7082 1.32233 12.7082 1.664V2.914H7.29153V1.664C7.29153 1.32233 7.0082 1.039 6.66653 1.039C6.32487 1.039 6.04153 1.32233 6.04153 1.664V2.964C3.79153 3.17233 2.69987 4.514 2.5332 6.50567C2.51653 6.74733 2.71653 6.94734 2.94987 6.94734H17.0499C17.2915 6.94734 17.4915 6.739 17.4665 6.50567C17.2999 4.514 16.2082 3.17233 13.9582 2.964Z" fill="#5B7D98"/>
<path d="M16.6667 8.19733H3.33333C2.875 8.19733 2.5 8.57233 2.5 9.03066V14.164C2.5 16.664 3.75 18.3307 6.66667 18.3307H13.3333C16.25 18.3307 17.5 16.664 17.5 14.164V9.03066C17.5 8.57233 17.125 8.19733 16.6667 8.19733ZM7.675 15.1723C7.63333 15.2057 7.59167 15.2473 7.55 15.2723C7.5 15.3057 7.45 15.3307 7.4 15.3473C7.35 15.3723 7.3 15.389 7.25 15.3973C7.19167 15.4057 7.14167 15.414 7.08333 15.414C6.975 15.414 6.86667 15.389 6.76667 15.3473C6.65833 15.3057 6.575 15.2473 6.49167 15.1723C6.34167 15.014 6.25 14.7973 6.25 14.5807C6.25 14.364 6.34167 14.1473 6.49167 13.989C6.575 13.914 6.65833 13.8557 6.76667 13.814C6.91667 13.7473 7.08333 13.7307 7.25 13.764C7.3 13.7723 7.35 13.789 7.4 13.814C7.45 13.8307 7.5 13.8557 7.55 13.889C7.59167 13.9223 7.63333 13.9557 7.675 13.989C7.825 14.1473 7.91667 14.364 7.91667 14.5807C7.91667 14.7973 7.825 15.014 7.675 15.1723ZM7.675 12.2557C7.51667 12.4057 7.3 12.4973 7.08333 12.4973C6.86667 12.4973 6.65 12.4057 6.49167 12.2557C6.34167 12.0973 6.25 11.8807 6.25 11.664C6.25 11.4473 6.34167 11.2307 6.49167 11.0723C6.725 10.839 7.09167 10.764 7.4 10.8973C7.50833 10.939 7.6 10.9973 7.675 11.0723C7.825 11.2307 7.91667 11.4473 7.91667 11.664C7.91667 11.8807 7.825 12.0973 7.675 12.2557ZM10.5917 15.1723C10.4333 15.3223 10.2167 15.414 10 15.414C9.78333 15.414 9.56667 15.3223 9.40833 15.1723C9.25833 15.014 9.16667 14.7973 9.16667 14.5807C9.16667 14.364 9.25833 14.1473 9.40833 13.989C9.71667 13.6807 10.2833 13.6807 10.5917 13.989C10.7417 14.1473 10.8333 14.364 10.8333 14.5807C10.8333 14.7973 10.7417 15.014 10.5917 15.1723ZM10.5917 12.2557C10.55 12.289 10.5083 12.3223 10.4667 12.3557C10.4167 12.389 10.3667 12.414 10.3167 12.4307C10.2667 12.4557 10.2167 12.4723 10.1667 12.4807C10.1083 12.489 10.0583 12.4973 10 12.4973C9.78333 12.4973 9.56667 12.4057 9.40833 12.2557C9.25833 12.0973 9.16667 11.8807 9.16667 11.664C9.16667 11.4473 9.25833 11.2307 9.40833 11.0723C9.48333 10.9973 9.575 10.939 9.68333 10.8973C9.99167 10.764 10.3583 10.839 10.5917 11.0723C10.7417 11.2307 10.8333 11.4473 10.8333 11.664C10.8333 11.8807 10.7417 12.0973 10.5917 12.2557ZM13.5083 15.1723C13.35 15.3223 13.1333 15.414 12.9167 15.414C12.7 15.414 12.4833 15.3223 12.325 15.1723C12.175 15.014 12.0833 14.7973 12.0833 14.5807C12.0833 14.364 12.175 14.1473 12.325 13.989C12.6333 13.6807 13.2 13.6807 13.5083 13.989C13.6583 14.1473 13.75 14.364 13.75 14.5807C13.75 14.7973 13.6583 15.014 13.5083 15.1723ZM13.5083 12.2557C13.4667 12.289 13.425 12.3223 13.3833 12.3557C13.3333 12.389 13.2833 12.414 13.2333 12.4307C13.1833 12.4557 13.1333 12.4723 13.0833 12.4807C13.025 12.489 12.9667 12.4973 12.9167 12.4973C12.7 12.4973 12.4833 12.4057 12.325 12.2557C12.175 12.0973 12.0833 11.8807 12.0833 11.664C12.0833 11.4473 12.175 11.2307 12.325 11.0723C12.4083 10.9973 12.4917 10.939 12.6 10.8973C12.75 10.8307 12.9167 10.814 13.0833 10.8473C13.1333 10.8557 13.1833 10.8723 13.2333 10.8973C13.2833 10.914 13.3333 10.939 13.3833 10.9723C13.425 11.0057 13.4667 11.039 13.5083 11.0723C13.6583 11.2307 13.75 11.4473 13.75 11.664C13.75 11.8807 13.6583 12.0973 13.5083 12.2557Z" fill="#5B7D98"/>
</svg>
