<svg width="16" height="16" viewBox="0 0 16 16" fill="none" xmlns="http://www.w3.org/2000/svg">
<path fill-rule="evenodd" clip-rule="evenodd" d="M8 14.8851C11.7422 14.8851 14.7759 11.8514 14.7759 8.10921C14.7759 4.367 11.7422 1.33334 8 1.33334C4.25779 1.33334 1.22412 4.367 1.22412 8.10921C1.22412 11.8514 4.25779 14.8851 8 14.8851ZM5.36763 5.39253C5.62798 5.13218 6.05009 5.13218 6.31044 5.39253L7.99996 7.08209L9.68948 5.39253C9.94983 5.13218 10.3719 5.13218 10.6323 5.39253C10.8926 5.65287 10.8926 6.07498 10.6323 6.33533L8.94276 8.0249L10.6323 9.71448C10.8926 9.97483 10.8926 10.3969 10.6323 10.6573C10.3719 10.9176 9.94983 10.9176 9.68948 10.6573L7.99996 8.96772L6.31044 10.6573C6.05009 10.9176 5.62798 10.9176 5.36763 10.6573C5.10728 10.3969 5.10727 9.97483 5.36762 9.71448L7.05716 8.0249L5.36762 6.33533C5.10727 6.07498 5.10728 5.65287 5.36763 5.39253Z" fill="white"/>
</svg>
