<svg width="22" height="22" viewBox="0 0 22 22" fill="none" xmlns="http://www.w3.org/2000/svg">
<path d="M14.2908 11.3667V15.0975C14.2908 15.4275 14.2541 15.7392 14.1716 16.0233C13.8325 17.3708 12.7141 18.2142 11.1741 18.2142H8.68081L5.91248 20.0567C5.49998 20.3408 4.94998 20.0383 4.94998 19.5433V18.2142C4.01498 18.2142 3.23581 17.9025 2.69498 17.3617C2.14498 16.8117 1.83331 16.0325 1.83331 15.0975V11.3667C1.83331 9.625 2.91498 8.42417 4.58331 8.26833C4.70248 8.25917 4.82165 8.25 4.94998 8.25H11.1741C13.0441 8.25 14.2908 9.49667 14.2908 11.3667Z" fill="currentColor"/>
<path d="M16.2708 14.3002C17.435 14.3002 18.4158 13.9152 19.0941 13.2277C19.7816 12.5493 20.1666 11.5685 20.1666 10.4043V5.72933C20.1666 3.57516 18.425 1.8335 16.2708 1.8335H8.47915C6.32498 1.8335 4.58331 3.57516 4.58331 5.72933V6.41683C4.58331 6.6735 4.78498 6.87516 5.04165 6.87516H11.1741C13.6583 6.87516 15.6658 8.88266 15.6658 11.3668V13.8418C15.6658 14.0985 15.8675 14.3002 16.1241 14.3002H16.2708Z" fill="currentColor"/>
</svg>
