<svg width="16" height="16" viewBox="0 0 16 16" fill="none" xmlns="http://www.w3.org/2000/svg">
<path d="M12.6267 3.61232L9.18005 1.61898C8.52005 1.23898 7.48672 1.23898 6.82672 1.61898L3.34672 3.62565C1.96672 4.55898 1.88672 4.69898 1.88672 6.18565V9.80565C1.88672 11.2923 1.96672 11.439 3.37339 12.3857L6.82005 14.379C7.15339 14.5723 7.58005 14.6657 8.00005 14.6657C8.42005 14.6657 8.84672 14.5723 9.17339 14.379L12.6534 12.3723C14.0334 11.439 14.1134 11.299 14.1134 9.81232V6.18565C14.1134 4.69898 14.0334 4.55898 12.6267 3.61232ZM8.00005 10.1657C6.80672 10.1657 5.83339 9.19232 5.83339 7.99898C5.83339 6.80565 6.80672 5.83232 8.00005 5.83232C9.19339 5.83232 10.1667 6.80565 10.1667 7.99898C10.1667 9.19232 9.19339 10.1657 8.00005 10.1657Z" fill="currentColor"/>
<rect x="1.33398" y="1.33398" width="13.3333" height="13.3333" rx="4" fill="currentColor"/>
<path d="M8.84185 4.24219L8.69412 9.67401H7.30776L7.15624 4.24219H8.84185ZM8.00094 12.0982C7.75094 12.0982 7.53629 12.0099 7.357 11.8331C7.17771 11.6538 7.08932 11.4392 7.09185 11.1892C7.08932 10.9417 7.17771 10.7296 7.357 10.5528C7.53629 10.376 7.75094 10.2876 8.00094 10.2876C8.24084 10.2876 8.4517 10.376 8.63352 10.5528C8.81533 10.7296 8.90751 10.9417 8.91003 11.1892C8.90751 11.3558 8.86331 11.5086 8.77746 11.6475C8.69412 11.7839 8.58427 11.8937 8.44791 11.977C8.31155 12.0578 8.16256 12.0982 8.00094 12.0982Z" fill="white"/>
</svg>
