<svg width="20" height="20" viewBox="0 0 20 20" fill="none" xmlns="http://www.w3.org/2000/svg">
<path d="M6.82589 14.8624L6.75877 12.5938C6.7375 11.9628 6.4254 11.3822 5.91087 11.0164L4.05295 9.70379C2.46433 8.58417 3.24365 6.07911 5.19024 6.06589L6.20797 6.06188C6.35139 6.05763 6.48845 6.10317 6.59546 6.19135L13.0128 11.1195C13.2746 11.3231 13.3352 11.6946 13.1501 11.9662L10.4824 15.9235C9.40268 17.537 6.88336 16.8051 6.82589 14.8624Z" fill="currentColor"/>
<path d="M13.4219 10.3766L9.21852 7.15246C8.74586 6.79062 9.00005 6.03145 9.59505 6.0295L13.3993 5.99786C15.0144 5.98401 15.9811 7.78233 15.0786 9.12181L14.3259 10.235C14.1207 10.5308 13.7129 10.5976 13.4219 10.3766Z" fill="currentColor"/>
</svg>
