<svg width="14" height="15" viewBox="0 0 14 15" fill="none" xmlns="http://www.w3.org/2000/svg">
<path d="M4.66667 4.58333C4.66667 5.20217 4.9125 5.79566 5.35008 6.23325C5.78767 6.67083 6.38116 6.91667 7 6.91667C7.61884 6.91667 8.21233 6.67083 8.64992 6.23325C9.0875 5.79566 9.33333 5.20217 9.33333 4.58333C9.33333 3.96449 9.0875 3.371 8.64992 2.93342C8.21233 2.49583 7.61884 2.25 7 2.25C6.38116 2.25 5.78767 2.49583 5.35008 2.93342C4.9125 3.371 4.66667 3.96449 4.66667 4.58333Z" fill="currentColor"/>
<path d="M3.5 12.75V11.5833C3.5 10.9645 3.74583 10.371 4.18342 9.93342C4.621 9.49583 5.21449 9.25 5.83333 9.25H8.16667C8.7855 9.25 9.379 9.49583 9.81658 9.93342C10.2542 10.371 10.5 10.9645 10.5 11.5833V12.75" fill="currentColor"/>
<path d="M4.66667 4.58333C4.66667 5.20217 4.9125 5.79566 5.35008 6.23325C5.78767 6.67083 6.38116 6.91667 7 6.91667C7.61884 6.91667 8.21233 6.67083 8.64992 6.23325C9.0875 5.79566 9.33333 5.20217 9.33333 4.58333C9.33333 3.96449 9.0875 3.371 8.64992 2.93342C8.21233 2.49583 7.61884 2.25 7 2.25C6.38116 2.25 5.78767 2.49583 5.35008 2.93342C4.9125 3.371 4.66667 3.96449 4.66667 4.58333ZM3.5 12.75V11.5833C3.5 10.9645 3.74583 10.371 4.18342 9.93342C4.621 9.49583 5.21449 9.25 5.83333 9.25H8.16667C8.7855 9.25 9.379 9.49583 9.81658 9.93342C10.2542 10.371 10.5 10.9645 10.5 11.5833V12.75H3.5Z" stroke="currentColor" stroke-width="1.33333" stroke-linecap="round" stroke-linejoin="round"/>
</svg>
