<svg width="18" height="19" viewBox="0 0 18 19" fill="none" xmlns="http://www.w3.org/2000/svg">
<path d="M14.505 10.9495L13.755 9.70453C13.5975 9.42703 13.455 8.90203 13.455 8.59453V6.69703C13.455 4.93453 12.42 3.41203 10.9275 2.69953C10.5375 2.00953 9.81746 1.58203 8.99246 1.58203C8.17496 1.58203 7.43996 2.02453 7.04996 2.72203C5.58746 3.44953 4.57496 4.95703 4.57496 6.69703V8.59453C4.57496 8.90203 4.43246 9.42703 4.27496 9.69703L3.51746 10.9495C3.21746 11.452 3.14996 12.007 3.33746 12.517C3.51746 13.0195 3.94496 13.4095 4.49996 13.597C5.95496 14.092 7.48496 14.332 9.01496 14.332C10.545 14.332 12.075 14.092 13.53 13.6045C14.055 13.432 14.46 13.0345 14.655 12.517C14.85 11.9995 14.7975 11.4295 14.505 10.9495Z" fill="currentColor"/>
<path d="M11.1225 15.0895C10.8075 15.9595 9.97501 16.582 9.00001 16.582C8.40751 16.582 7.82251 16.342 7.41001 15.9145C7.17001 15.6895 6.99001 15.3895 6.88501 15.082C6.98251 15.097 7.08001 15.1045 7.18501 15.1195C7.35751 15.142 7.53751 15.1645 7.71751 15.1795C8.14501 15.217 8.58001 15.2395 9.01501 15.2395C9.44251 15.2395 9.87001 15.217 10.29 15.1795C10.4475 15.1645 10.605 15.157 10.755 15.1345C10.875 15.1195 10.995 15.1045 11.1225 15.0895Z" fill="currentColor"/>
</svg>
