<svg width="22" height="22" viewBox="0 0 22 22" fill="none" xmlns="http://www.w3.org/2000/svg">
<path d="M10.1291 13.7043L8.43325 15.4001C8.07575 15.7576 7.50742 15.7576 7.14075 15.4093C7.03992 15.3084 6.93909 15.2168 6.83825 15.1159C5.89409 14.1626 5.04159 13.1634 4.28075 12.1184C3.52909 11.0734 2.92409 10.0284 2.48409 8.9926C2.05325 7.9476 1.83325 6.94844 1.83325 5.9951C1.83325 5.37177 1.94325 4.77594 2.16325 4.22594C2.38325 3.66677 2.73159 3.15344 3.21742 2.6951C3.80409 2.1176 4.44575 1.83344 5.12409 1.83344C5.38075 1.83344 5.63742 1.88844 5.86659 1.99844C6.10492 2.10844 6.31575 2.27344 6.48075 2.51177L8.60742 5.50927C8.77242 5.73844 8.89159 5.94927 8.97409 6.15094C9.05659 6.34344 9.10242 6.53594 9.10242 6.7101C9.10242 6.9301 9.03825 7.1501 8.90992 7.36093C8.79075 7.57177 8.61659 7.79177 8.39659 8.01177L7.69992 8.73593C7.59909 8.83677 7.55325 8.95594 7.55325 9.1026C7.55325 9.17594 7.56242 9.2401 7.58075 9.31344C7.60825 9.38677 7.63575 9.44177 7.65409 9.49677C7.81909 9.79927 8.10325 10.1934 8.50659 10.6701C8.91909 11.1468 9.35909 11.6326 9.83575 12.1184C9.92742 12.2101 10.0283 12.3018 10.1199 12.3934C10.4866 12.7509 10.4958 13.3376 10.1291 13.7043Z" fill="currentColor"/>
<path d="M20.1392 16.8026C20.1392 17.0593 20.0934 17.3251 20.0017 17.5818C19.9742 17.6551 19.9467 17.7285 19.91 17.8018C19.7542 18.1318 19.5525 18.4435 19.2867 18.7368C18.8375 19.2318 18.3425 19.5893 17.7834 19.8185C17.7742 19.8185 17.765 19.8276 17.7559 19.8276C17.215 20.0476 16.6284 20.1668 15.9959 20.1668C15.0609 20.1668 14.0617 19.9468 13.0075 19.4976C11.9534 19.0485 10.8992 18.4435 9.85422 17.6826C9.49672 17.4168 9.13922 17.151 8.80005 16.8668L11.7975 13.8693C12.0542 14.0618 12.2834 14.2085 12.4759 14.3093C12.5217 14.3276 12.5767 14.3551 12.6409 14.3826C12.7142 14.4101 12.7875 14.4193 12.87 14.4193C13.0259 14.4193 13.145 14.3643 13.2459 14.2635L13.9425 13.576C14.1717 13.3468 14.3917 13.1726 14.6025 13.0626C14.8134 12.9343 15.0242 12.8701 15.2534 12.8701C15.4275 12.8701 15.6109 12.9068 15.8125 12.9893C16.0142 13.0718 16.225 13.191 16.4542 13.3468L19.4884 15.501C19.7267 15.666 19.8917 15.8585 19.9925 16.0876C20.0842 16.3168 20.1392 16.546 20.1392 16.8026Z" fill="currentColor"/>
</svg>
