<svg width="14" height="14" viewBox="0 0 14 14" fill="none" xmlns="http://www.w3.org/2000/svg">
<path d="M6.48782 1.5223C6.7089 1.11692 7.29098 1.11692 7.51207 1.5223L8.86632 4.00549C8.95022 4.15933 9.09884 4.26731 9.27107 4.29956L12.0512 4.82019C12.5051 4.90518 12.6849 5.45877 12.3677 5.7943L10.4246 7.84963C10.3042 7.97696 10.2474 8.15167 10.27 8.32544L10.6339 11.1304C10.6933 11.5883 10.2224 11.9304 9.80529 11.7324L7.25009 10.5195C7.09179 10.4444 6.90809 10.4444 6.74979 10.5195L4.19459 11.7324C3.77745 11.9304 3.30654 11.5883 3.36596 11.1304L3.72993 8.32544C3.75247 8.15167 3.69571 7.97696 3.57532 7.84963L1.63216 5.7943C1.31493 5.45877 1.49481 4.90518 1.94867 4.82019L4.72881 4.29956C4.90105 4.26731 5.04966 4.15933 5.13356 4.00549L6.48782 1.5223Z" fill="currentColor"/>
</svg>
