<svg width="18" height="19" viewBox="0 0 18 19" fill="none" xmlns="http://www.w3.org/2000/svg">
<path d="M12.75 1.9043H5.25C3 1.9043 1.5 3.4043 1.5 5.6543V10.1543C1.5 12.4043 3 13.9043 5.25 13.9043V15.5018C5.25 16.1018 5.9175 16.4618 6.4125 16.1243L9.75 13.9043H12.75C15 13.9043 16.5 12.4043 16.5 10.1543V5.6543C16.5 3.4043 15 1.9043 12.75 1.9043ZM9 11.0318C8.685 11.0318 8.4375 10.7768 8.4375 10.4693C8.4375 10.1618 8.685 9.9068 9 9.9068C9.315 9.9068 9.5625 10.1618 9.5625 10.4693C9.5625 10.7768 9.315 11.0318 9 11.0318ZM9.945 7.9193C9.6525 8.1143 9.5625 8.2418 9.5625 8.4518V8.6093C9.5625 8.9168 9.3075 9.1718 9 9.1718C8.6925 9.1718 8.4375 8.9168 8.4375 8.6093V8.4518C8.4375 7.5818 9.075 7.1543 9.315 6.9893C9.5925 6.8018 9.6825 6.6743 9.6825 6.4793C9.6825 6.1043 9.375 5.7968 9 5.7968C8.625 5.7968 8.3175 6.1043 8.3175 6.4793C8.3175 6.7868 8.0625 7.0418 7.755 7.0418C7.4475 7.0418 7.1925 6.7868 7.1925 6.4793C7.1925 5.4818 8.0025 4.6718 9 4.6718C9.9975 4.6718 10.8075 5.4818 10.8075 6.4793C10.8075 7.3343 10.1775 7.7618 9.945 7.9193Z" fill="currentColor"/>
</svg>
