<svg width="27" height="26" viewBox="0 0 27 26" fill="currentColor" xmlns="http://www.w3.org/2000/svg">
<path d="M17.7895 2.16699H8.71116C4.76783 2.16699 2.41699 4.51783 2.41699 8.46116V17.5395C2.41699 21.4828 4.76783 23.8337 8.71116 23.8337H17.7895C21.7328 23.8337 24.0837 21.4828 24.0837 17.5395V8.46116C24.0837 4.51783 21.7328 2.16699 17.7895 2.16699ZM11.0512 16.142L8.61366 18.5795C8.45116 18.742 8.24533 18.8178 8.03949 18.8178C7.83366 18.8178 7.61699 18.742 7.46533 18.5795L6.65283 17.767C6.32783 17.4528 6.32783 16.9328 6.65283 16.6187C6.96699 16.3045 7.47616 16.3045 7.80116 16.6187L8.03949 16.857L9.90283 14.9937C10.217 14.6795 10.7262 14.6795 11.0512 14.9937C11.3653 15.3078 11.3653 15.8278 11.0512 16.142ZM11.0512 8.55866L8.61366 10.9962C8.45116 11.1587 8.24533 11.2345 8.03949 11.2345C7.83366 11.2345 7.61699 11.1587 7.46533 10.9962L6.65283 10.1837C6.32783 9.86949 6.32783 9.34949 6.65283 9.03533C6.96699 8.72116 7.47616 8.72116 7.80116 9.03533L8.03949 9.27366L9.90283 7.41033C10.217 7.09616 10.7262 7.09616 11.0512 7.41033C11.3653 7.72449 11.3653 8.24449 11.0512 8.55866ZM19.2737 18.0053H13.5862C13.142 18.0053 12.7737 17.637 12.7737 17.1928C12.7737 16.7487 13.142 16.3803 13.5862 16.3803H19.2737C19.7287 16.3803 20.0862 16.7487 20.0862 17.1928C20.0862 17.637 19.7287 18.0053 19.2737 18.0053ZM19.2737 10.422H13.5862C13.142 10.422 12.7737 10.0537 12.7737 9.60949C12.7737 9.16533 13.142 8.79699 13.5862 8.79699H19.2737C19.7287 8.79699 20.0862 9.16533 20.0862 9.60949C20.0862 10.0537 19.7287 10.422 19.2737 10.422Z" fill="currentColor"/>
</svg>
