<svg width="27" height="26" viewBox="0 0 27 26" fill="currentColor" xmlns="http://www.w3.org/2000/svg">
<path d="M13.2503 2.16699C10.412 2.16699 8.10449 4.47449 8.10449 7.31283C8.10449 10.097 10.282 12.3503 13.1203 12.4478C13.207 12.437 13.2937 12.437 13.3587 12.4478C13.3803 12.4478 13.3912 12.4478 13.4128 12.4478C13.4237 12.4478 13.4237 12.4478 13.4345 12.4478C16.2078 12.3503 18.3853 10.097 18.3962 7.31283C18.3962 4.47449 16.0887 2.16699 13.2503 2.16699Z" fill="currentColor"/>
<path d="M18.753 15.3296C15.7305 13.3146 10.8014 13.3146 7.75721 15.3296C6.38138 16.2504 5.62305 17.4963 5.62305 18.8288C5.62305 20.1613 6.38138 21.3963 7.74638 22.3063C9.26305 23.3246 11.2564 23.8338 13.2497 23.8338C15.243 23.8338 17.2364 23.3246 18.753 22.3063C20.118 21.3854 20.8764 20.1504 20.8764 18.8071C20.8655 17.4746 20.118 16.2396 18.753 15.3296Z" fill="currentColor"/>
</svg>
