<svg width="27" height="26" viewBox="0 0 27 26" fill="currentColor" xmlns="http://www.w3.org/2000/svg">
<path d="M16.2954 2.16699H11.2037C10.0771 2.16699 9.15625 3.07699 9.15625 4.20366V5.22199C9.15625 6.34866 10.0663 7.25866 11.1929 7.25866H16.2954C17.4221 7.25866 18.3321 6.34866 18.3321 5.22199V4.20366C18.3429 3.07699 17.4221 2.16699 16.2954 2.16699Z" fill="currentColor"/>
<path d="M19.427 5.22177C19.427 6.94427 18.0186 8.3526 16.2961 8.3526H11.2045C9.48195 8.3526 8.07362 6.94427 8.07362 5.22177C8.07362 4.6151 7.42362 4.23593 6.88195 4.5176C5.35445 5.3301 4.31445 6.94427 4.31445 8.79677V18.9909C4.31445 21.6559 6.49195 23.8334 9.15695 23.8334H18.3436C21.0086 23.8334 23.1861 21.6559 23.1861 18.9909V8.79677C23.1861 6.94427 22.1461 5.3301 20.6186 4.5176C20.077 4.23593 19.427 4.6151 19.427 5.22177ZM14.162 18.3626H9.41695C8.97279 18.3626 8.60445 17.9943 8.60445 17.5501C8.60445 17.1059 8.97279 16.7376 9.41695 16.7376H14.162C14.6061 16.7376 14.9745 17.1059 14.9745 17.5501C14.9745 17.9943 14.6061 18.3626 14.162 18.3626ZM17.0003 14.0293H9.41695C8.97279 14.0293 8.60445 13.6609 8.60445 13.2168C8.60445 12.7726 8.97279 12.4043 9.41695 12.4043H17.0003C17.4445 12.4043 17.8128 12.7726 17.8128 13.2168C17.8128 13.6609 17.4445 14.0293 17.0003 14.0293Z" fill="currentColor"/>
</svg>
