<svg width="16" height="16" viewBox="0 0 16 16" fill="none" xmlns="http://www.w3.org/2000/svg">
<path fill-rule="evenodd" clip-rule="evenodd" d="M2.94715 7.27884C2.84202 6.58225 2.78947 6.23395 2.98691 6.00736C3.18437 5.78076 3.54043 5.78076 4.25257 5.78076H11.7486C12.4608 5.78076 12.8169 5.78076 13.0143 6.00736C13.2118 6.23395 13.1592 6.58225 13.0541 7.27884L12.464 11.1887C12.2237 12.7811 12.1036 13.5771 11.5465 14.052C10.9894 14.5268 10.1755 14.5268 8.54777 14.5268H7.45347C5.82569 14.5268 5.0118 14.5268 4.45472 14.052C3.89764 13.5771 3.7775 12.7811 3.53721 11.1887L2.94715 7.27884ZM7.34067 8.48942C7.34067 8.21907 7.11907 7.9999 6.84571 7.9999C6.57236 7.9999 6.35076 8.21907 6.35076 8.48942V11.4265C6.35076 11.6969 6.57236 11.916 6.84571 11.916C7.11907 11.916 7.34067 11.6969 7.34067 11.4265V8.48942ZM9.65047 8.48942C9.65047 8.21907 9.42886 7.9999 9.15551 7.9999C8.88216 7.9999 8.66056 8.21907 8.66056 8.48942V11.4265C8.66056 11.6969 8.88216 11.916 9.15551 11.916C9.42886 11.916 9.65047 11.6969 9.65047 11.4265V8.48942Z" fill="currentColor"/>
<path d="M2.7207 4.08391C2.7207 3.72343 3.01617 3.43122 3.38065 3.43122H3.87126C4.211 3.43122 4.38088 3.43122 4.52038 3.36212C4.58355 3.33083 4.64123 3.28971 4.69122 3.24034C4.80161 3.1313 4.85533 2.97192 4.96277 2.65315L5.05964 2.36573C5.20483 1.93494 5.27742 1.71955 5.45026 1.59634C5.62309 1.47314 5.85266 1.47314 6.31179 1.47314H9.6887C10.1478 1.47314 10.3774 1.47314 10.5503 1.59634C10.723 1.71955 10.7956 1.93494 10.9408 2.36573L11.0377 2.65315C11.1451 2.97192 11.1988 3.1313 11.3093 3.24034C11.3592 3.28971 11.417 3.33083 11.4801 3.36212C11.6196 3.43122 11.7895 3.43122 12.1292 3.43122H12.6198C12.9843 3.43122 13.2798 3.72343 13.2798 4.08391C13.2798 4.44438 12.9843 4.7366 12.6198 4.7366H3.38065C3.01617 4.7366 2.7207 4.44438 2.7207 4.08391Z" fill="currentColor"/>
</svg>
