<svg width="14" height="15" viewBox="0 0 14 15" fill="none" xmlns="http://www.w3.org/2000/svg">
<path d="M5.83333 7.5C5.83333 7.80942 5.95625 8.10616 6.17504 8.32496C6.39383 8.54375 6.69058 8.66667 7 8.66667C7.30942 8.66667 7.60616 8.54375 7.82496 8.32496C8.04375 8.10616 8.16667 7.80942 8.16667 7.5C8.16667 7.19058 8.04375 6.89383 7.82496 6.67504C7.60616 6.45625 7.30942 6.33333 7 6.33333C6.69058 6.33333 6.39383 6.45625 6.17504 6.67504C5.95625 6.89383 5.83333 7.19058 5.83333 7.5Z" fill="currentColor"/>
<path d="M12.25 7.5C10.85 9.83333 9.1 11 7 11C4.9 11 3.15 9.83333 1.75 7.5C3.15 5.16667 4.9 4 7 4C9.1 4 10.85 5.16667 12.25 7.5Z" fill="currentColor"/>
<path d="M5.83333 7.5C5.83333 7.80942 5.95625 8.10616 6.17504 8.32496C6.39383 8.54375 6.69058 8.66667 7 8.66667C7.30942 8.66667 7.60616 8.54375 7.82496 8.32496C8.04375 8.10616 8.16667 7.80942 8.16667 7.5C8.16667 7.19058 8.04375 6.89383 7.82496 6.67504C7.60616 6.45625 7.30942 6.33333 7 6.33333C6.69058 6.33333 6.39383 6.45625 6.17504 6.67504C5.95625 6.89383 5.83333 7.19058 5.83333 7.5Z" stroke="currentColor" stroke-width="1.33333" stroke-linecap="round" stroke-linejoin="round"/>
<path d="M12.25 7.5C10.85 9.83333 9.1 11 7 11C4.9 11 3.15 9.83333 1.75 7.5C3.15 5.16667 4.9 4 7 4C9.1 4 10.85 5.16667 12.25 7.5Z" stroke="currentColor" stroke-width="1.33333" stroke-linecap="round" stroke-linejoin="round"/>
<circle cx="7" cy="7.5" r="1.75" fill="white"/>
</svg>
