<svg width="21" height="20" viewBox="0 0 21 20" fill="none" xmlns="http://www.w3.org/2000/svg">
<path d="M10.4993 1.6665C5.90768 1.6665 2.16602 5.40817 2.16602 9.99984C2.16602 14.5915 5.90768 18.3332 10.4993 18.3332C15.091 18.3332 18.8327 14.5915 18.8327 9.99984C18.8327 5.40817 15.091 1.6665 10.4993 1.6665ZM14.1243 12.9748C14.0077 13.1748 13.7993 13.2832 13.5827 13.2832C13.4743 13.2832 13.366 13.2582 13.266 13.1915L10.6827 11.6498C10.041 11.2665 9.56602 10.4248 9.56602 9.68317V6.2665C9.56602 5.92484 9.84935 5.6415 10.191 5.6415C10.5327 5.6415 10.816 5.92484 10.816 6.2665V9.68317C10.816 9.98317 11.066 10.4248 11.3243 10.5748L13.9077 12.1165C14.2077 12.2915 14.3077 12.6748 14.1243 12.9748Z" fill="#5B7D98"/>
</svg>
