<svg width="14" height="14" viewBox="0 0 14 14" fill="none" xmlns="http://www.w3.org/2000/svg">
<path fill-rule="evenodd" clip-rule="evenodd" d="M12.8925 2.20585C13.2179 1.88042 13.2179 1.35278 12.8925 1.02734C12.567 0.701906 12.0394 0.701904 11.714 1.02734L6.99986 5.74146L2.28587 1.02747C1.96043 0.702031 1.4328 0.702031 1.10736 1.02747C0.781922 1.3529 0.781922 1.88054 1.10736 2.20598L5.82135 6.91997L1.10737 11.6339C0.781935 11.9594 0.781936 12.487 1.10737 12.8125C1.43281 13.1379 1.96045 13.1379 2.28588 12.8125L6.99986 8.09848L11.714 12.8126C12.0394 13.138 12.567 13.138 12.8925 12.8126C13.2179 12.4871 13.2179 11.9595 12.8925 11.6341L8.17837 6.91997L12.8925 2.20585Z" fill="white"/>
</svg>
