<svg width="106" height="90" viewBox="0 0 106 90" fill="none" xmlns="http://www.w3.org/2000/svg">
<path d="M94.0319 65.5161H39.3222C32.7126 65.5161 27.3545 70.8742 27.3545 77.4839C27.3545 84.0935 32.7126 89.4516 39.3222 89.4516H94.0319C100.642 89.4516 106 84.0935 106 77.4839C106 70.8742 100.642 65.5161 94.0319 65.5161ZM92.3011 72.6482C89.6304 73.5924 88.2308 76.523 89.1752 79.1935C90.1195 81.864 93.0499 83.2639 95.7204 82.3195C97.1812 81.8031 98.3301 80.654 98.8464 79.1935H102.409C101.591 83.1709 98.0926 86.0271 94.0319 86.0322H85.4835V82.6129H82.0642V86.0322H78.6448V82.6129H75.2255V86.0322H71.8061V82.6129H68.3868V86.0322H64.9674V82.6129H61.548V86.0322H58.1287V82.6129H54.7093V86.0322H51.29V82.6129H47.8706V86.0322H39.3222C35.2615 86.0271 31.7627 83.1709 30.9448 79.1935H34.5061C35.4502 81.8643 38.3808 83.2639 41.0514 82.3195C43.7219 81.3751 45.1217 78.4447 44.1773 75.7742C43.2329 73.1037 40.3025 71.7039 37.632 72.6482C36.1713 73.1646 35.0224 74.3137 34.5061 75.7742H30.9448C31.7627 71.7968 35.2615 68.9406 39.3222 68.9355H47.8706V72.3548H51.29V68.9355H54.7093V72.3548H58.1287V68.9355H61.548V72.3548H64.9674V68.9355H68.3868V72.3548H71.8061V68.9355H75.2255V72.3548H78.6448V68.9355H82.0642V72.3548H85.4835V68.9355H94.0319C98.0926 68.9406 101.591 71.7968 102.409 75.7742H98.8464C97.9022 73.1034 94.9716 71.7039 92.3011 72.6482ZM95.7416 77.4839C95.7416 78.428 94.9761 79.1935 94.0319 79.1935C93.0878 79.1935 92.3222 78.428 92.3222 77.4839C92.3222 76.5397 93.0878 75.7742 94.0319 75.7742C94.9761 75.7742 95.7416 76.5397 95.7416 77.4839ZM37.6126 77.4839C37.6126 76.5397 38.3781 75.7742 39.3222 75.7742C40.2664 75.7742 41.0319 76.5397 41.0319 77.4839C41.0319 78.428 40.2664 79.1935 39.3222 79.1935C38.3781 79.1935 37.6126 78.428 37.6126 77.4839Z" fill="currentColor"/>
<path d="M34.1935 24.4838V21.0645H35.9032C36.8474 21.0645 37.6129 20.299 37.6129 19.3548V14.2258H48.8728L51.2903 16.6432V24.4838H47.871C42.2079 24.4894 37.6185 29.0788 37.6129 34.7419V51.8387C37.6185 57.5018 42.2079 62.0912 47.871 62.0967H94.0323C100.642 62.0459 105.958 56.6465 105.907 50.0371C105.862 44.1584 101.554 39.183 95.7419 38.298V29.6129C95.7419 28.6687 96.5074 27.9032 97.4516 27.9032H99.1613V24.4838H97.4516C94.6189 24.4838 92.3226 26.7801 92.3226 29.6129V38.1612H88.9032V33.0322C88.9032 32.088 88.1377 31.3225 87.1935 31.3225H73.5161C72.572 31.3225 71.8064 32.088 71.8064 33.0322V38.1612H68.3871V26.1935C68.3871 25.2493 67.6216 24.4838 66.6774 24.4838H64.9677V12.5161C64.9677 12.0626 64.7874 11.6279 64.4668 11.3073L54.2087 1.04928C53.8882 0.728711 53.4535 0.54834 53 0.54834H46.1613C45.2171 0.54834 44.4516 1.31385 44.4516 2.25802V3.96769H17.8046L14.8862 1.04928C14.2185 0.38186 13.1363 0.38186 12.4687 1.04928L0.500935 13.017C0.180371 13.3376 0 13.7723 0 14.2258V43.2903C0 44.2344 0.765508 45 1.70968 45H3.41935V58.6774H1.70968C0.765508 58.6774 0 59.4429 0 60.3871V80.9032C0 81.3567 0.180371 81.7914 0.500935 82.1119L7.33965 88.9506C7.66021 89.2712 8.09489 89.4516 8.54839 89.4516H22.2258C23.17 89.4514 23.9353 88.6858 23.9351 87.7415C23.9351 87.2882 23.7549 86.8537 23.4345 86.5331L7.54652 70.6451L13.1765 65.0152C13.497 64.6946 13.6774 64.2599 13.6774 63.8064V38.1612H18.8064C19.7506 38.1612 20.5161 37.3957 20.5161 36.4516V34.7419H23.9355C24.389 34.7419 24.8237 34.5615 25.1442 34.241L33.6926 25.6926C34.0132 25.372 34.1935 24.9373 34.1935 24.4838ZM88.9032 41.5806H94.0323C98.751 41.5862 102.575 45.4103 102.581 50.129C102.581 50.7032 102.524 51.276 102.41 51.8387H88.9032V41.5806ZM100.827 55.258C99.2256 57.4028 96.7088 58.6697 94.0323 58.6774H47.871C45.4387 58.6697 43.195 57.3667 41.9828 55.258H100.827ZM47.871 51.8387V34.7419H58.129V51.8387H47.871ZM82.0645 51.8387V41.5806H85.4839V51.8387H82.0645ZM75.2258 34.7419H85.4839V38.1612H75.2258V34.7419ZM68.3871 41.5806H71.8064V45H68.3871V41.5806ZM64.9677 27.9032V46.7096C64.9677 47.6538 65.7332 48.4193 66.6774 48.4193H73.5161C74.4603 48.4193 75.2258 47.6538 75.2258 46.7096V41.5806H78.6452V51.8387H61.5484V33.0322C61.5484 32.088 60.7829 31.3225 59.8387 31.3225H47.871C45.9824 31.3225 44.4516 32.8533 44.4516 34.7419V51.8387H41.0323V34.7419C41.0323 30.965 44.0941 27.9032 47.871 27.9032H64.9677ZM47.871 3.96769H52.2922L61.5484 13.2239V24.4838H54.7097V15.9354C54.7097 15.4819 54.5293 15.0473 54.2087 14.7267L50.7894 11.3073C50.4688 10.9868 50.0341 10.8064 49.5806 10.8064H47.871V3.96769ZM18.8064 7.38705H44.4516V10.8064H18.8064V7.38705ZM18.0986 86.0322H9.25619L3.41935 80.1954V74.7723L5.12903 73.0626L18.0986 86.0322ZM10.2581 63.0986L3.41935 69.9373V62.0967H10.2581V63.0986ZM10.2581 58.6774H6.83871V45H10.2581V58.6774ZM10.2581 41.5806H3.41935V38.1612H10.2581V41.5806ZM10.759 16.4364C10.4384 16.7569 10.2581 17.1916 10.2581 17.6451V34.7419H3.41935V14.9336L13.6774 4.6755L15.3871 6.38518V11.8083L10.759 16.4364ZM17.0968 34.7419H13.6774V31.3225H17.0968V34.7419ZM30.7742 23.776L23.2277 31.3225H20.5161V29.6129C20.5161 28.6687 19.7506 27.9032 18.8064 27.9032H13.6774V18.3529L17.8046 14.2258H27.3548V19.3548C27.3548 20.299 28.1203 21.0645 29.0645 21.0645H30.7742V23.776ZM30.7742 14.2258H34.1935V17.6451H30.7742V14.2258Z" fill="currentColor"/>
</svg>
